# xmcd
#
# Track frame offsets: 
#        150
#        22055
#        46853
#        64468
#        81523
#        100840
#        129094
#        151969
#        165704
#        196631
#        216291
#
# Disc length: 3108 seconds
#
# Revision: 3
# Processed by: cddbd v1.5.2PL0 Copyright (c) Steve Scherf et al.
# Submitted via: ExactAudioCopyFreeDBPlugin 1.0
#
DISCID=900c220b
DTITLE=Sampler - Trance Volume 2
DYEAR=2008
DGENRE=Trance
TTITLE0=DJ Mezmerize - First Theme
TTITLE1=Danceteria - Dream Sound
TTITLE2=MC Platinum - 10 P.M.
TTITLE3=DJ Blue - Sunny Feelings
TTITLE4=Genius D - Spirit
TTITLE5=Danceteria - All The Places
TTITLE6=DJ Mezmerize - Far Behind
TTITLE7=MC Platinum - Beat
TTITLE8=Genius D - Music From The Future
TTITLE9=DJ Mezmerize - Happy Nation
TTITLE10=Danceteria - Moonlight
EXTD=
EXTT0=
EXTT1=
EXTT2=
EXTT3=
EXTT4=
EXTT5=
EXTT6=
EXTT7=
EXTT8=
EXTT9=
EXTT10=
PLAYORDER=
